<svg xmlns="http://www.w3.org/2000/svg" viewbox="0 0 432 432" width="432" height="432"><path d="M423.3 51.8a6 6 0 00-10.5-1.2c-7.6 10.6-17.5 14.1-29 18.2-9.4 3.3-19 6.8-29.3 14.2-14.7 10.6-21.5 25-18.1 38.6l-.4.4a185.5 185.5 0 00-152.5-81.3 183.2 183.2 0 00-138.7 64.8A182.4 182.4 0 004.5 265c13 57.2 46.2 100.8 91.1 119.4 11 4.6 22.2 7 33.2 7 27.2 0 50.9-14.6 65.1-40a86.3 86.3 0 0010.4-29.6c.8-5.9.2-11.8-.3-17.5a66 66 0 01-.3-17.1c2-12.9 11-20.6 24-20.6 3.8 0 7.5.6 11.3 1.8-4.4 8.1-8.4 15.9-12 23a233.9 233.9 0 00-15.2 37.5c-1.6 6-6 21.7 4.7 29.2a16 16 0 0012.2 2.3c4-.7 16.4-3 51.4-42.9 9.4-10.7 19.5-23 30-36.8a81.5 81.5 0 0054-58c1.4-6.6 2-13.6 1.7-20.9a931 931 0 0028.6-47 49.5 49.5 0 0030.9-28c9.6-20.7 8.9-47.3-2-74.9zm-147 98a25.5 25.5 0 01-35.2 8 25.4 25.4 0 01-8-35.2 25.5 25.5 0 0135.3-8 25.4 25.4 0 018 35.2zm33.3 46.4c13-19 26.6-38 39.6-54.9a53.9 53.9 0 0020.2 12.3c-11 18.8-22.8 37.4-37 58.4a960.2 960.2 0 01-68.8 90.4 264.9 264.9 0 01-29.6 29.9c3-9.7 8.8-23 16.8-38.8a963.2 963.2 0 0158.8-97.3zm-227-.2a25.5 25.5 0 01-21.7-39.2 25.5 25.5 0 0135.3-8A25.6 25.6 0 0182.5 196zm-27 56.4a25.5 25.5 0 0135.4-8 25.4 25.4 0 018 35.2 25.5 25.5 0 01-35.3 8 25.4 25.4 0 01-8-35.2zm82-152a25.5 25.5 0 0135.3-8 25.6 25.6 0 11-35.3 8z"/></svg>