<svg viewBox="0 -72 512 512" xmlns="http://www.w3.org/2000/svg"><path d="M510.8 219.86c-.93-1.44-23.19-35.47-65.71-69.9-25-20.23-51.83-36.36-79.75-47.94-35-14.5-71.78-21.86-109.34-21.86s-74.34 7.35-109.34 21.86c-27.92 11.58-54.75 27.71-79.75 47.94-42.52 34.43-64.78 68.46-65.7 69.9a7.5 7.5 0 000 8.16c.92 1.43 23.18 35.47 65.7 69.89 25 20.23 51.83 36.36 79.75 47.95a284.11 284.11 0 00183.57 12 7.52 7.52 0 00-3.94-14.5 268.33 268.33 0 01-70.29 9.33c-80.4 0-141.85-35.97-179.23-66.14-32.45-26.18-52.95-52.69-60.1-62.61 7.15-9.93 27.65-36.43 60.1-62.62C114.15 131.15 175.59 95.2 256 95.2s141.85 35.96 179.23 66.13c32.45 26.19 52.96 52.7 60.1 62.62-11.63 16.14-58.65 76.1-135.87 108.08a7.52 7.52 0 005.75 13.89c48.93-20.26 85.85-51.16 108.2-73.5 24.26-24.26 36.86-43.58 37.39-44.39a7.52 7.52 0 000-8.16zm0 0"/><path d="M256 112.22c-61.6 0-111.72 50.12-111.72 111.72S194.4 335.66 256 335.66s111.72-50.12 111.72-111.72S317.6 112.22 256 112.22zm0 208.4c-53.31 0-96.69-43.37-96.69-96.68 0-53.31 43.38-96.69 96.69-96.69 53.32 0 96.7 43.38 96.7 96.69 0 53.31-43.38 96.69-96.7 96.69zm0 0"/><path d="M256 192.38c-17.4 0-31.56 14.16-31.56 31.56S238.6 255.5 256 255.5s31.56-14.16 31.56-31.56-14.16-31.56-31.56-31.56zm0 48.09c-9.11 0-16.53-7.42-16.53-16.53s7.42-16.53 16.53-16.53c9.12 0 16.54 7.41 16.54 16.53s-7.42 16.53-16.54 16.53zm0 0M256 39.08a7.51 7.51 0 007.52-7.52V7.52a7.51 7.51 0 10-15.04 0v24.04a7.52 7.52 0 007.52 7.52zm0 0M153.3 61.1a7.59 7.59 0 0010.97 2.28 7.58 7.58 0 002.05-9.8L154.3 32.75a7.51 7.51 0 10-13.02 7.52zm0 0M348.43 63.84a7.59 7.59 0 0010.27-2.75l12.02-20.82a7.51 7.51 0 10-13.02-7.52l-12.02 20.83a7.52 7.52 0 002.75 10.26zm0 0"/></svg>